<svg xmlns="http://www.w3.org/2000/svg" xmlns:xlink="http://www.w3.org/1999/xlink" width="40" height="40" viewBox="0 0 40 40" version="1.1"   xml:space="preserve"  style="fill-rule:evenodd;clip-rule:evenodd;stroke-linejoin:round;stroke-miterlimit:2;">
    <g id="circle" transform="matrix(0.0711201,0,0,0.07112,1.77533,1.79425)">
        <circle cx="256.252" cy="255.986" r="253.093" style="fill:white;"/>
    </g>
    <g id="blue-piece" transform="matrix(0.0711201,0,0,0.07112,1.77533,1.79425)">
        <path d="M455.398,412.197C489.19,369.176 509.344,314.935 509.344,255.986C509.344,116.207 396.031,2.893 256.251,2.893C225.845,2.893 196.693,8.26 169.685,18.09C272.435,71.989 408.349,247.839 455.398,412.197Z" style="fill:rgb(62,91,169);fill-rule:nonzero;"/>
    </g>
    <g id="left-red-piece" transform="matrix(0.0711201,0,0,0.07112,1.77533,1.79425)">
        <path d="M220.003,164.337C180.522,121.804 136.308,88.025 89.48,65.622C36.573,112.011 3.159,180.092 3.159,255.986C3.159,319.8 26.785,378.09 65.756,422.609C100.111,319.392 164.697,219.907 220.003,164.337Z" style="fill:rgb(159,29,32);fill-rule:nonzero;"/>
    </g>
    <g id="bottom-red-piece" transform="matrix(0.0711201,0,0,0.07112,1.77533,1.79425)">
        <path d="M266.638,221.727C211.846,280.778 157.246,384.149 137.486,479.521C172.905,498.378 213.326,509.08 256.252,509.08C300.384,509.08 341.87,497.774 377.992,477.917C357.171,381.712 317.868,293.604 266.638,221.727Z" style="fill:rgb(159,29,32);fill-rule:nonzero;"/>
    </g>
</svg>
