<?xml version="1.0" encoding="utf-8"?>
<!-- Generator: Adobe Illustrator 26.5.0, SVG Export Plug-In . SVG Version: 6.00 Build 0)  -->
<svg version="1.1" id="Layer_1" xmlns="http://www.w3.org/2000/svg" xmlns:xlink="http://www.w3.org/1999/xlink" x="0px" y="0px"
	 viewBox="0 0 16 16" style="enable-background:new 0 0 16 16;" xml:space="preserve">
<style type="text/css">
	.st0{fill-rule:evenodd;clip-rule:evenodd;fill:#E05555;fill-opacity:0.7;}
	.st1{fill-rule:evenodd;clip-rule:evenodd;fill:#9AA7B0;fill-opacity:0.8;}
	.st2{fill-rule:evenodd;clip-rule:evenodd;fill:#231F20;fill-opacity:0.7;}
</style>
<g>
	<polygon class="st0" points="1,16 16,16 16,9 1,9 	"/>
	<polygon class="st1" points="7,1 3,5 7,5 	"/>
	<polygon class="st1" points="8,1 8,6 3,6 3,8 13,8 13,1 	"/>
	<path class="st2" d="M2,15v-5h2.1c0.6,0,1,0.2,1.3,0.5c0.3,0.3,0.4,0.7,0.4,1.1l0,0c0,0.8-0.4,1.3-1,1.6L6,15H4.8l-1-1.6H3V15H2z
		 M3,12.4h1c0.5,0,0.8-0.3,0.8-0.7l0,0C4.8,11.2,4.5,11,4,11H3V12.4z"/>
	<polygon class="st2" points="7,10 8,10 8,12 9.7,10 11,10 9.2,12.2 11,15 9.8,15 8.5,13 8,13.6 8,15 7,15 	"/>
	<polygon class="st2" points="13,11 11.5,11 11.5,10 15.5,10 15.5,11 14,11 14,15 13,15 	"/>
</g>
</svg>
